<svg width="1527" height="928" fill="none" xmlns="http://www.w3.org/2000/svg"><path d="M5.873 127.346c-2.277 4.58-.405 10.129 4.176 12.405.93.458 1.886.741 2.856.876L8.244 263.502c-3.032.337-5.82 2.142-7.275 5.078-2.277 4.58-.404 10.129 4.176 12.405 3.435 1.71 7.41 1.077 10.144-1.253l161.967 140.534a8.64 8.64 0 0 0-.485.848c-2.277 4.58-.404 10.129 4.176 12.405s10.131.404 12.407-4.175a9.666 9.666 0 0 0 .661-1.765l118.454 13.132a9.262 9.262 0 0 0 5.132 7.947c4.581 2.276 10.131.404 12.408-4.175a9.156 9.156 0 0 0 .808-5.779l123.95-42.17a9.246 9.246 0 0 0 4.096 4.054 9.238 9.238 0 0 0 6.224.727l113.698 287.478a9.244 9.244 0 0 0 .512 16.297c4.581 2.277 10.131.404 12.408-4.175a9.356 9.356 0 0 0 .956-3.637l371.838-35.315c-1.306 4.256.607 8.944 4.729 10.991 4.58 2.276 10.13.404 12.407-4.176.135-.255.243-.525.35-.794l134.185 29.995c-.25 3.636 1.65 7.233 5.11 8.957 4.16 2.074 9.13.7 11.71-3.004l155.78 77.419c-1.4 4.296.51 9.078 4.67 11.138a9.24 9.24 0 0 0 7.59.283l69.78 118.768a9.255 9.255 0 0 0-2.4 3.017c-2.27 4.579-.4 10.129 4.18 12.405s10.13.404 12.41-4.176c2.08-4.188.68-9.185-3.07-11.758l132.85-259.57a9.249 9.249 0 0 0 11.25-4.647c2.28-4.58.4-10.129-4.18-12.405a9.097 9.097 0 0 0-5.1-.902l-35.24-135.537a9.196 9.196 0 0 0 4.67-4.391c2.28-4.579.4-10.128-4.18-12.404-4.58-2.277-10.13-.404-12.4 4.175a9.17 9.17 0 0 0-.96 4.148L1354 506.857a9.211 9.211 0 0 0-4.73-5.576c-2.49-1.24-5.28-1.24-7.68-.256l-53.09-83.332a9.254 9.254 0 0 0 1.93-2.586c2.27-4.579.4-10.128-4.18-12.405-4.58-2.276-10.13-.404-12.41 4.176v.027l.53-1.28L993.934 290.79c1.011-4.121-.902-8.539-4.863-10.505a9.185 9.185 0 0 0-6.062-.755l-44.604-118.673a9.191 9.191 0 0 0 3.799-3.974c2.277-4.579.404-10.128-4.176-12.404-4.58-2.277-10.13-.404-12.407 4.175a9.241 9.241 0 0 0-.916 5.037l-185.636 46.885a9.188 9.188 0 0 0-4.419-4.727c-4.58-2.277-10.131-.404-12.407 4.175a9.22 9.22 0 0 0-.876 5.414l-112.446 33.268a9.176 9.176 0 0 0-4.27-4.39c-4.581-2.277-10.131-.405-12.408 4.175a9.21 9.21 0 0 0-.417.997L380.27 201.465c.027-3.434-1.845-6.748-5.132-8.378-2.425-1.212-5.133-1.239-7.477-.323l-75.44-126.795a9.435 9.435 0 0 0 2.587-3.152c2.276-4.58.404-10.128-4.176-12.404a9.266 9.266 0 0 0-12.219 3.811L110.748 9.454c.067-3.475-1.805-6.842-5.133-8.485-4.58-2.277-10.13-.404-12.407 4.175a9.258 9.258 0 0 0 1.185 10.048L18.2 123.198c-4.553-2.195-10.05-.323-12.3 4.216l-.026-.068zm103.891-114.04c.202-.404.35-.808.499-1.226l151.418 40.434 15.749 4.202a10.886 10.886 0 0 0-.202 1.616L109.926 103.4l-6.83-85.123c2.789-.498 5.308-2.25 6.655-4.983l.013.013zm871.049 283.532a9.1 9.1 0 0 0 3.382.929l8.972 132.183-25.273-121.004 11.815-12.768c.35.242.714.458 1.091.646l.013.014zm302.207 123.333 15.11 85.931-67.6-1.522a9.239 9.239 0 0 0-3.05-5.764l51.54-79.143c1.3.472 2.66.62 4 .498zm190.75 77.554a9.13 9.13 0 0 0 5.11.902l35.24 135.537a9.346 9.346 0 0 0-2.79 1.845l-102.38-78.981 63.26-60.286c.49.377 1.01.7 1.56.983zM193.705 421.949a9.205 9.205 0 0 0-4.527-4.997 9.151 9.151 0 0 0-5.9-.781l-59.382-167.552c.417-.229.822-.484 1.212-.767L281.66 402.689l-87.955 19.274v-.014zm84.789-358.647-153.79 169.451c-.323-.215-.66-.417-1.024-.606a9.178 9.178 0 0 0-3.502-.943l-10.037-125.031 167.41-45.093c.215.781.525 1.535.929 2.236l.014-.014zM110.397 241.696l-25.555 7.476-63.316-109.515 90.73 95.09c-.377.484-.7.996-.983 1.562a9.15 9.15 0 0 0-.876 5.387zm.768 2.613a9.255 9.255 0 0 0 4.284 4.418 9.142 9.142 0 0 0 5.901.781l57.496 162.245-92.59-160.157 24.909-7.287zm24.222 9.86 100.012 76.004 79.468 60.394a2.683 2.683 0 0 0-.189.337 9.279 9.279 0 0 0-.943 4.754l-28.91 6.331-149.452-147.82h.014zm178.941 144.143a9.198 9.198 0 0 0 4.526 4.996 9.08 9.08 0 0 0 2.506.822l-.755 27.059a9.186 9.186 0 0 0-4.445 1.791l-29.031-28.715 27.185-5.953h.014zm11.518 33.793a9.103 9.103 0 0 0-2.506-.822l.755-27.059a9.24 9.24 0 0 0 7.18-5.064 9.364 9.364 0 0 0 .889-2.936l121.728-2.344s.013.081.027.122l-123.951 42.157a9.239 9.239 0 0 0-4.095-4.054h-.027zm409.289-219.986 54.128 68.192-91.794 82.133a9.2 9.2 0 0 0-1.792-1.172c-.229-.107-.458-.215-.7-.309l34.769-147.632a9.31 9.31 0 0 0 5.402-1.199l-.013-.013zM1509.3 646.501l-163.41 105.084-20.22-105.421a9.237 9.237 0 0 0 5.23-4.606c.4-.808.67-1.657.82-2.519l176.81 4.768c.11.93.36 1.846.75 2.694h.02zm-136.16 263.638-69.74-118.66a9.08 9.08 0 0 0 2.48-3.084 9.272 9.272 0 0 0 .15-7.933l37.95-24.406 29.51 153.935c-.12.041-.24.094-.35.135v.013zM1264.06 656.67l50.01-15.678a9.216 9.216 0 0 0 4.42 4.755c.4.202.82.363 1.24.498l-21.96 128.802c-.43 0-.88 0-1.29.054l-32.42-118.431zm-130.33 38.022a9.2 9.2 0 0 0-3.03-3.542l87.79-176.589c1.31.417 2.65.552 3.96.39l38.3 139.914-127.01 39.827h-.01zm-160.797-39.207a8.13 8.13 0 0 0-1.28.161l-59.234-171.754 75.682-29.348a9.277 9.277 0 0 0 3.638 3.259 8.832 8.832 0 0 0 1.562.593l-16.125 156.009-4.243 41.08zM472.226 392.789l149.735-14.923 26.404 152.911a9.247 9.247 0 0 0-3.475 2.088L471.014 396.924c.081-.148.175-.283.243-.444a9.318 9.318 0 0 0 .956-3.677l.013-.014zm514.582 54.791a9.117 9.117 0 0 0 .162 4.472l-75.44 29.254-25.771-74.698a9.234 9.234 0 0 0 6.089-4.135l94.96 45.107zm314.912 328.41a9.442 9.442 0 0 0-1.24-.498l22.01-128.802h.52l20.43 106.484-38.88 24.998a9.137 9.137 0 0 0-2.84-2.195v.013zM655.411 531.262a14.51 14.51 0 0 0-.687-.296l35.228-148.75.821-3.448a9.282 9.282 0 0 0 6.345-1.831l81.934 80.772-120.718 75.802a9.128 9.128 0 0 0-2.91-2.262l-.013.013zm43.62-156.251c.31-.418.58-.862.822-1.334.243-.498.431-1.01.593-1.522l42.004 5.792 132.437 18.25a9.972 9.972 0 0 0-.094 1.401l-93.384 58.643-82.391-81.23h.013zm176.247 25.496c.27.768.633 1.509 1.091 2.195l-21.473 56.219-16.907 44.272a9.28 9.28 0 0 0-7.422 1.522l-47.164-46.494 91.875-57.701v-.013zm-31.321 107.01a9.186 9.186 0 0 0-3.422-3.354l16.988-44.474 20.921-54.791c.458.35.943.66 1.482.916.97.485 1.994.767 3.004.889l26.067 75.587-65.053 25.213.013.014zM687.433 377.852c.229.108.458.202.687.297l-36.05 152.197a8.378 8.378 0 0 0-.997-.027L624.696 377.61l57.887-5.765a9.211 9.211 0 0 0 4.85 6.034v-.027zm-27.671 157.989 121.27-76.152 47.581 46.912c-.35.458-.66.956-.929 1.481a9.294 9.294 0 0 0-.957 3.96l-166.588 24.81a9.172 9.172 0 0 0-.377-1.024v.013zm185.205-25.806 64.919-25.173 59.207 171.66c-.283.148-.566.31-.835.485L843.23 517.955a9.57 9.57 0 0 0 1.037-1.63 9.172 9.172 0 0 0 .7-6.29zm380.113 4.189c.27-.121.52-.242.77-.377l90.11 117.178c-.65.66-1.2 1.442-1.63 2.317a9.152 9.152 0 0 0-.92 5.01l-50.06 15.705-38.27-139.819v-.014zm-237.302-69.189-94.825-45.026c.808-2.896.121-5.967-1.711-8.257l74.389-80.328 27.037 129.422a9.21 9.21 0 0 0-4.89 4.189zm-98.53-55.141c-.35-.243-.714-.458-1.091-.66a8.33 8.33 0 0 0-.957-.404l46.194-226.842c.35.014.687 0 1.037 0l30.526 146.15-75.696 81.756h-.013zm-13.579 3.663-174.886-24.096a9.345 9.345 0 0 0-1.523-4.983l91.687-82.025L877.272 391.2a9.269 9.269 0 0 0-1.536 2.209c-.027.054-.04.094-.067.148zm-193.383-24.446-58.075 5.792-21.312-123.401a9.064 9.064 0 0 0 1.563-.579l80.613 111.993a9.567 9.567 0 0 0-1.846 2.505 9.318 9.318 0 0 0-.956 3.677l.013.013zm-85.92-118.242a9.262 9.262 0 0 0 3.812.956l21.298 123.347-149.532 14.91a9.115 9.115 0 0 0-1.806-3.583l124.678-136.6c.472.364.984.687 1.536.97h.014zM469.344 399.052l173.875 135.941c-.08.148-.175.283-.242.444a9.256 9.256 0 0 0 3.422 11.988l-60.595 140.479a9.201 9.201 0 0 0-4.486-.067L467.619 400.359a9.471 9.471 0 0 0 1.738-1.307h-.013zm118.939 289.93 60.594-140.48a9.277 9.277 0 0 0 10.427-4.391l85.557 32.999-154.867 113.219a9.403 9.403 0 0 0-1.711-1.361v.014zm72.005-147.403a9.395 9.395 0 0 0 .229-2.02l166.547-24.81a9.47 9.47 0 0 0 .7 1.765l-80.289 58.697-87.174-33.632h-.013zm169.08-22.87a9.18 9.18 0 0 0 2.465 1.791c3.125 1.549 6.695 1.172 9.389-.673l125.002 139.012a6.1 6.1 0 0 0-.445.592l-215.273-83.048 78.875-57.674h-.013zm148.091 137.732a9.383 9.383 0 0 0-1.832-.673l17.297-167.377 3.058-29.618a8.69 8.69 0 0 0 2.277-.323l73.881 141.328-91.839 58.872a9.228 9.228 0 0 0-2.856-2.195l.014-.014zm23.301-199.096a9.142 9.142 0 0 0 3.33-3.623l208.03 51.168a9.269 9.269 0 0 0 .77 4.66l-138.45 88.746-73.68-140.951zm213.59 54.495a8.501 8.501 0 0 0 1.69 1.495l-87.8 176.589a9.244 9.244 0 0 0-5.88.054l-46.65-89.257 138.64-88.881zm-79.81 185.438 126.91-39.8 32.39 118.324a9.232 9.232 0 0 0-3.86 3.178l-155.78-77.418c.46-1.415.56-2.883.34-4.297v.013zm241.62 212.161-29.72-154.959 164.33-105.689c.45.525.99 1.01 1.59 1.427l-132.89 259.625a9.018 9.018 0 0 0-3.31-.418v.014zm133.5-271.248c-.07.135-.15.256-.21.39a8.946 8.946 0 0 0-.83 2.519l-176.81-4.768a9.382 9.382 0 0 0-1.62-4.216l76.77-73.162 102.7 79.237zm-181.35-8.055c-.49-.377-1-.7-1.56-.983-.06-.027-.13-.054-.19-.081l17.93-110.296c2.6.189 5.18-.754 7.07-2.572l53.2 41.039-76.46 72.88.01.013zm12.72-112.302c.27.134.52.242.79.35l-17.9 110.094a9.835 9.835 0 0 0-1.55-.094l-20.99-119.28 34.51.781c.06 3.354 1.93 6.559 5.14 8.149zm-21.34 110.821c-.39.135-.77.296-1.13.471l-90.53-116.976a9.09 9.09 0 0 0 1.6-2.29c.42-.821.69-1.683.84-2.559l68.15 1.536 21.08 119.804-.01.014zm-46.32-214.679a9.236 9.236 0 0 0 3.24 4.418l-51.42 78.954c-4.53-2.075-9.92-.202-12.14 4.283-.1.202-.19.404-.27.619l-54.64-13.442-153.17-37.672c.05-.283.08-.566.11-.848l268.29-36.312zm-295.655-119.63-10.508 11.341-28.384-135.914 41.613 110.687a9.189 9.189 0 0 0-3.799 3.973c-1.657 3.34-1.104 7.179 1.078 9.913zm-47.958-133.301c.309.162.633.297.956.404L884.52 388.291a9.324 9.324 0 0 0-5.12 1.225l-86.419-108.881 134.984-120.762a9.11 9.11 0 0 0 1.792 1.172zm-3.611-3.205L791.27 278.493l-54.02-68.058a9.229 9.229 0 0 0 1.536-2.209 9.25 9.25 0 0 0 .916-5.037l185.636-46.871c.216.525.498 1.037.808 1.522zm-199.768 54.562c.229.108.458.215.701.31l-34.77 147.631a9.332 9.332 0 0 0-5.011.997l-80.573-111.926a9.24 9.24 0 0 0 2.061-2.721 9.212 9.212 0 0 0 .876-5.414l112.446-33.268a9.183 9.183 0 0 0 4.27 4.391zm-133.542 35.369s.068.108.108.161L468.145 384.668a13.167 13.167 0 0 0-1.038-.62 9.174 9.174 0 0 0-6.857-.539l-23.804-49.497 156.377-86.241h.013zM457.799 384.695a9.221 9.221 0 0 0-3.988 6.478l-121.728 2.344a7.942 7.942 0 0 0-.458-1.684l102.423-56.488 23.724 49.363.027-.013zm-127.481 4.741a9.286 9.286 0 0 0-3.233-2.681c-.202-.094-.39-.175-.593-.256l34.312-138.257 9.349-37.672a9.217 9.217 0 0 0 3.732-.417l59.005 122.741-102.558 56.555-.014-.013zm36.548-179.795c.216.107.418.188.634.282l-9.148 36.865-34.513 139.065c-.175-.014-.364-.027-.539-.04l-19.13-172.805 57.928-9.051c.7 2.384 2.344 4.498 4.755 5.684h.013zm-46.261 176.468a9.302 9.302 0 0 0-4.095 2.316l-60.325-45.847-128.517-97.676c.067-.108.135-.215.188-.323a9.115 9.115 0 0 0 .957-4.189l172.677-26.978 19.115 172.683v.014zM128.382 237.71a9.278 9.278 0 0 0-1.671-3.112L280.218 65.471a9.618 9.618 0 0 0 2.142 1.481c.97.485 1.994.768 3.004.89l15.816 142.863-172.798 26.991v.014zm-10.925-6.263a9.39 9.39 0 0 0-3.247 1.454l-92.158-96.584c.134-.229.27-.458.39-.701a9.245 9.245 0 0 0 .768-5.993l84.264-22.695 9.996 124.532-.013-.013zm-101.845-90.82c.97-.162 1.9-.458 2.776-.916l63.76 110.282-64.488 18.87a9.258 9.258 0 0 0-4.284-4.418 9.454 9.454 0 0 0-2.411-.808l4.66-123.024-.013.014zm1.442 137.085a9.148 9.148 0 0 0 1.36-6.236l65.121-19.045 95.742 165.612c-.095.068-.189.135-.27.216L17.04 277.725l.014-.013zm177.243 147.214c0-.094-.013-.189-.027-.283l89.68-19.651 30.284 29.955c-.31.417-.593.862-.836 1.347a8.725 8.725 0 0 0-.66 1.764l-118.454-13.132h.013zm398.095 269.713a8.845 8.845 0 0 0-.795-2.075l156.282-114.255 211.286 81.513-366.773 34.83v-.013zm390.173-29.228a9.28 9.28 0 0 0-.795-4.471l91.62-58.738 46.54 89.042a9.255 9.255 0 0 0-2.84 3.354c-.13.256-.24.525-.35.795l-134.189-29.995.014.013zm486.475-173.249a9.42 9.42 0 0 0 1.28 2.613l-63.55 60.583-53.54-41.309c.07-.135.15-.256.22-.391.66-1.333.97-2.747.95-4.148l114.64-17.361v.013zm-129.78 10.25a9.393 9.393 0 0 0-2.4 3.017 9.355 9.355 0 0 0-.59 1.549l-35.35-.795-15.25-86.658c.2-.081.41-.175.61-.283l52.99 83.17h-.01zm-65.87-94.443a9.139 9.139 0 0 0-.52 3.327l-267.97 36.271c-.58-2.653-2.3-5.037-4.93-6.344a9.077 9.077 0 0 0-3.382-.929l-9.686-142.689a9.246 9.246 0 0 0 5.968-4.31l280.45 114.835.05-.148.02-.013zM591.247 242.114a9.332 9.332 0 0 0 .404 3.179l-156.39 86.24L376.296 208.9a9.057 9.057 0 0 0 2.964-3.462c.216-.444.391-.889.525-1.346L591.233 242.1l.014.014zm-225.984-48.057a9.16 9.16 0 0 0-3.529 7.179l-57.86 9.038-15.775-142.527a9.336 9.336 0 0 0 1.724-.485l75.454 126.795h-.014zM97.343 17.481a9.293 9.293 0 0 0 3.032.89l6.884 85.755-84.978 22.897a9.454 9.454 0 0 0-1.846-2.37L96.428 16.929c.296.189.606.377.93.539l-.014.013z" fill="#000" fill-opacity=".03"/></svg>