<svg xmlns="http://www.w3.org/2000/svg" viewBox="0 0 55.55 59.28"><defs><style>.cls-1{fill:#fff;}.cls-2{fill:#d9bcf7;}.cls-3{fill:#003c96;}</style></defs><title>Asset 2</title><g id="Layer_2" data-name="Layer 2"><g id="_1" data-name="1"><path class="cls-1" d="M46.68,2.52A2.52,2.52,0,1,1,44.16,5,2.5,2.5,0,0,1,46.68,2.52Z"/><path class="cls-1" d="M6.35,50.41a2.5,2.5,0,0,1,2.52,2.52,2.56,2.56,0,0,1-2.52,2.52,2.56,2.56,0,0,1-2.52-2.52A2.5,2.5,0,0,1,6.35,50.41Z"/><path class="cls-1" d="M51.72,37.81a22.58,22.58,0,0,1-4.64,1.41c-1-3.93-3.12-6.55-5.44-6.55A12.62,12.62,0,0,1,48,34.38h0A15.4,15.4,0,0,1,51.72,37.81Z"/><path class="cls-1" d="M41.64,50.91a31.4,31.4,0,0,1,5.44.51C46.08,55.35,44,58,41.64,58Z"/><path class="cls-1" d="M41.64,58a12.91,12.91,0,0,1-3.93-.6h-.1a10.25,10.25,0,0,1-2.32-1.11h0a14.65,14.65,0,0,1-3.73-3.33,22.68,22.68,0,0,1,4.63-1.41C37.2,55.35,39.22,58,41.64,58Z"/><path class="cls-1" d="M41.64,45.37v5.54a31.52,31.52,0,0,0-5.45.51,22.71,22.71,0,0,1-.8-6.05Z"/><path class="cls-1" d="M47.79,45.37h6.35a12.43,12.43,0,0,1-2.52,7.56A22.58,22.58,0,0,0,47,51.52,23.63,23.63,0,0,0,47.79,45.37Z"/><path class="cls-1" d="M54.24,45.37H47.89a22.3,22.3,0,0,0-.81-6,20.83,20.83,0,0,0,4.64-1.41A12.56,12.56,0,0,1,54.24,45.37Z"/><path class="cls-1" d="M51.72,52.93A11.94,11.94,0,0,1,48,56.26h0A11.93,11.93,0,0,1,41.64,58c2.32,0,4.44-2.62,5.44-6.55A22.72,22.72,0,0,1,51.72,52.93Z"/><path class="cls-1" d="M47.79,45.37H41.54V39.82a31.42,31.42,0,0,0,5.44-.5A22.3,22.3,0,0,1,47.79,45.37Z"/><path class="cls-1" d="M41.64,45.37h6.25a22.3,22.3,0,0,1-.81,6.05,31.4,31.4,0,0,0-5.44-.51Z"/><path class="cls-1" d="M47.08,39.32a31.42,31.42,0,0,1-5.44.5v-7C44,32.77,46,35.39,47.08,39.32Z"/><path class="cls-1" d="M41.64,50.91V58c-2.32,0-4.44-2.62-5.45-6.55A31.52,31.52,0,0,1,41.64,50.91Z"/><path class="cls-1" d="M41.64,39.82v5.55H35.39a22.71,22.71,0,0,1,.8-6A31.54,31.54,0,0,0,41.64,39.82Z"/><path class="cls-1" d="M41.64,32.77v7a31.54,31.54,0,0,1-5.45-.5C37.2,35.39,39.22,32.77,41.64,32.77Z"/><path class="cls-1" d="M41.64,32.77c-2.32,0-4.44,2.62-5.45,6.55a20.91,20.91,0,0,1-4.63-1.41,11.66,11.66,0,0,1,3.73-3.33h0a11,11,0,0,1,2.92-1.21A9.13,9.13,0,0,1,41.64,32.77Z"/><path class="cls-1" d="M36.09,39.32a22.71,22.71,0,0,0-.8,6H28.94a12.37,12.37,0,0,1,2.52-7.56A22.83,22.83,0,0,0,36.09,39.32Z"/><path class="cls-1" d="M35.39,45.37a22.71,22.71,0,0,0,.8,6.05,20.91,20.91,0,0,0-4.63,1.41A13,13,0,0,1,29,45.27h6.35Z"/><polygon class="cls-2" points="24 1.31 24 16.43 16.43 16.43 8.87 16.43 1.31 16.43 1.31 1.31 24 1.31"/><rect class="cls-2" x="8.87" y="16.43" width="7.56" height="5.04"/><path class="cls-3" d="M24,17.64H16.43a1.31,1.31,0,1,1,0-2.62h6.25V2.52H2.52v12.6H8.87a1.31,1.31,0,0,1,0,2.62H1.31A1.33,1.33,0,0,1,0,16.43V1.31A1.33,1.33,0,0,1,1.31,0H24a1.33,1.33,0,0,1,1.31,1.31V16.43A1.49,1.49,0,0,1,24,17.64Z"/><path class="cls-3" d="M16.43,22.68a1.33,1.33,0,0,1-1.31-1.31V17.54h-5v3.83a1.33,1.33,0,0,1-1.31,1.31,1.22,1.22,0,0,1-1.21-1.2V16.43a1.34,1.34,0,0,1,1.31-1.31h7.56a1.33,1.33,0,0,1,1.31,1.31v5.05A1.48,1.48,0,0,1,16.43,22.68Z"/><path class="cls-3" d="M17.64,22.68H7.56a1.31,1.31,0,0,1,0-2.62H17.64a1.31,1.31,0,0,1,0,2.62Z"/><path class="cls-3" d="M17.64,26.52H7.56a1.32,1.32,0,0,1,0-2.63H17.64a1.32,1.32,0,0,1,0,2.63Z"/><path class="cls-3" d="M19,13.91H6.35a1.31,1.31,0,1,1,0-2.62H19a1.34,1.34,0,0,1,1.32,1.31A1.5,1.5,0,0,1,19,13.91Z"/><path class="cls-3" d="M41.64,28.13a1.33,1.33,0,0,1-1.31-1.31v-.1a1.31,1.31,0,0,1,2.62,0v.1A1.5,1.5,0,0,1,41.64,28.13Zm0-3.63a1.33,1.33,0,0,1-1.31-1.31v-.1a1.31,1.31,0,0,1,2.62,0v.1A1.5,1.5,0,0,1,41.64,24.5Zm0-3.73a1.33,1.33,0,0,1-1.31-1.31v-.1a1.31,1.31,0,0,1,2.62,0v.1A1.4,1.4,0,0,1,41.64,20.77Zm0-3.63a1.33,1.33,0,0,1-1.31-1.31v-.1a1.31,1.31,0,0,1,2.62,0v.1A1.5,1.5,0,0,1,41.64,17.14Zm0-3.63a1.33,1.33,0,0,1-1.31-1.31v-.1a1.33,1.33,0,0,1,1.31-1.31,1.24,1.24,0,0,1,1.21,1.31v.1A1.33,1.33,0,0,1,41.64,13.51Zm-1.51-2.12H40a1.31,1.31,0,0,1,0-2.62h.1a1.34,1.34,0,0,1,1.31,1.31A1.49,1.49,0,0,1,40.13,11.39Zm-3.73,0h-.1a1.31,1.31,0,1,1,0-2.62h.1a1.31,1.31,0,1,1,0,2.62Zm-3.63,0h-.1a1.31,1.31,0,0,1,0-2.62h.1a1.31,1.31,0,1,1,0,2.62Zm-3.63,0H29a1.31,1.31,0,1,1,0-2.62h.1a1.34,1.34,0,0,1,1.31,1.31A1.41,1.41,0,0,1,29.14,11.39Z"/><path class="cls-3" d="M24,49.2h-.11a1.31,1.31,0,0,1,0-2.62H24a1.33,1.33,0,0,1,1.31,1.31A1.41,1.41,0,0,1,24,49.2Zm-3.73,0h-.11a1.31,1.31,0,1,1,0-2.62h.11a1.31,1.31,0,0,1,0,2.62Zm-3.63,0h-.11a1.31,1.31,0,1,1,0-2.62h.11a1.31,1.31,0,0,1,0,2.62ZM13,49.2h-.1a1.31,1.31,0,1,1,0-2.62H13a1.31,1.31,0,0,1,0,2.62Zm-1.62-2a1.33,1.33,0,0,1-1.31-1.31v-.1a1.31,1.31,0,1,1,2.62,0v.1A1.48,1.48,0,0,1,11.39,47.18Zm0-3.73a1.33,1.33,0,0,1-1.31-1.31V42a1.31,1.31,0,1,1,2.62,0v.1A1.39,1.39,0,0,1,11.39,43.45Zm0-3.63a1.33,1.33,0,0,1-1.31-1.31v-.1a1.31,1.31,0,0,1,2.62,0v.1A1.48,1.48,0,0,1,11.39,39.82Zm0-3.63a1.33,1.33,0,0,1-1.31-1.31v-.1a1.31,1.31,0,1,1,2.62,0v.1A1.48,1.48,0,0,1,11.39,36.19Zm0-3.62a1.34,1.34,0,0,1-1.31-1.32v-.1a1.31,1.31,0,1,1,2.62,0v.1A1.5,1.5,0,0,1,11.39,32.57Z"/><path class="cls-3" d="M46.68,8.87A3.83,3.83,0,1,1,50.51,5,3.89,3.89,0,0,1,46.68,8.87Zm0-5A1.31,1.31,0,1,0,47.89,5,1.23,1.23,0,0,0,46.68,3.83Z"/><path class="cls-3" d="M6.35,56.76a3.83,3.83,0,1,1,3.83-3.83A3.89,3.89,0,0,1,6.35,56.76Zm0-5a1.31,1.31,0,1,0,0,2.62A1.33,1.33,0,0,0,7.66,53,1.4,1.4,0,0,0,6.35,51.72Z"/><path class="cls-3" d="M31,39a1.25,1.25,0,0,1,.91-2.32,25.48,25.48,0,0,0,19.26,0A1.24,1.24,0,1,1,52,39,27.75,27.75,0,0,1,31,39Z"/><path class="cls-3" d="M51.22,54A25.48,25.48,0,0,0,32,54a1.25,1.25,0,0,1-.91-2.32A27.59,27.59,0,0,1,41.64,49.6a25.84,25.84,0,0,1,10.59,2.12,1.36,1.36,0,0,1,.7,1.61A1.29,1.29,0,0,1,51.22,54Z"/><path class="cls-3" d="M41.64,59.28c-2.92,0-5.34-2.82-6.66-7.46a25.82,25.82,0,0,1-.8-6.45,26.43,26.43,0,0,1,.8-6.45c1.32-4.64,3.74-7.46,6.66-7.46s5.34,2.82,6.65,7.46a25,25,0,0,1,0,12.8C47,56.46,44.46,59.28,41.64,59.28Zm0-25.2c-2.42,0-4.94,4.74-4.94,11.39a21.08,21.08,0,0,0,.7,5.75c.91,3.32,2.63,5.54,4.24,5.54,2.42,0,4.94-4.74,4.94-11.39a20.69,20.69,0,0,0-.71-5.75C44.87,36.3,43.25,34.08,41.64,34.08Z"/><path class="cls-3" d="M41.64,59.28A1.33,1.33,0,0,1,40.33,58V32.77a1.31,1.31,0,1,1,2.62,0V58A1.49,1.49,0,0,1,41.64,59.28Z"/><path class="cls-3" d="M54.24,46.68H29a1.31,1.31,0,1,1,0-2.62h25.2a1.33,1.33,0,0,1,1.31,1.31A1.48,1.48,0,0,1,54.24,46.68Z"/><path class="cls-3" d="M27.73,45.37a13.47,13.47,0,0,1,3-8.57c.1-.1.2-.2.2-.3h0a14.11,14.11,0,0,1,8.77-4.84h.1A13.91,13.91,0,0,1,55.45,45.37a13.47,13.47,0,0,1-3,8.57c-.1.1-.2.2-.2.3h0A14,14,0,0,1,44.06,59a3.25,3.25,0,0,1-.71.1h0a6.65,6.65,0,0,1-1.41.1A13.8,13.8,0,0,1,27.73,45.37ZM43,56.66h0a11.43,11.43,0,0,0,7.76-4.53,11.23,11.23,0,0,0-.4-14l-.2-.2a8.78,8.78,0,0,0-2-1.82c-.6-.4-.6-.4-1.11-.7h0a9,9,0,0,0-2.32-1,13.93,13.93,0,0,0-4.53-.4h0a11.41,11.41,0,0,0-7.56,18.35c.3.3.2.2.2.3a18.71,18.71,0,0,0,1.61,1.61c.3.2.5.41.81.61.6.4.7.4.8.5h0a3.31,3.31,0,0,1,.61.3,6.42,6.42,0,0,0,1.71.71A18.73,18.73,0,0,0,43,56.66Z"/></g></g></svg>