<svg xmlns="http://www.w3.org/2000/svg" viewBox="0 0 56.67 58.07"><defs><style>.cls-1{fill:#fff;}.cls-2{fill:#d9bcf7;}.cls-3{fill:#003c96;}</style></defs><title>Asset 3</title><g id="Layer_2" data-name="Layer 2"><g id="_1" data-name="1"><path class="cls-1" d="M10.79,36.6h-.2a9.19,9.19,0,0,1-2-18.15v-.2a9.21,9.21,0,0,1,9.17-9.18,10.8,10.8,0,0,1,3.13.51A11.74,11.74,0,0,1,32.16,1.21,11.56,11.56,0,0,1,44,12.7a12.05,12.05,0,0,1,11.79,12c0,6.45-5.24,12.2-11.79,12.2Z"/><path class="cls-2" d="M32.26,49.6c-1.11,4.34-3.22,7.26-5.54,7.26V49.1A24.84,24.84,0,0,1,32.26,49.6Z"/><path class="cls-2" d="M21.07,49.6c1.11,4.34,3.23,7.26,5.55,7.26a14.81,14.81,0,0,1-11.5-5.44A20.75,20.75,0,0,1,21.07,49.6Z"/><path class="cls-2" d="M26.72,41.94V49.1a32.72,32.72,0,0,0-5.55.5,29.52,29.52,0,0,1-.9-7.56l6.45-.1Z"/><path class="cls-2" d="M33.17,41.94h8.47a15.43,15.43,0,0,1-3.33,9.48,23,23,0,0,0-6-1.82A35.3,35.3,0,0,0,33.17,41.94Z"/><path class="cls-2" d="M26.72,27a14.81,14.81,0,0,1,11.49,5.44,22.66,22.66,0,0,1-6,1.82C31.15,29.94,29,27,26.72,27Z"/><path class="cls-2" d="M33.17,41.94H26.72V34.78a32.6,32.6,0,0,0,5.54-.5A30.47,30.47,0,0,1,33.17,41.94Z"/><path class="cls-2" d="M26.72,27v7.76a32.72,32.72,0,0,1-5.55-.5C22.28,29.94,24.3,27,26.72,27Z"/><path class="cls-2" d="M41.64,41.94H33.17a28.59,28.59,0,0,0-.91-7.56,23,23,0,0,0,6-1.81,16.06,16.06,0,0,1,2.62,4.63A14,14,0,0,1,41.64,41.94Z"/><path class="cls-2" d="M38.21,51.42a14.77,14.77,0,0,1-11.49,5.44c2.42,0,4.43-2.92,5.54-7.26A19.72,19.72,0,0,1,38.21,51.42Z"/><path class="cls-2" d="M26.72,41.94h6.45a28.53,28.53,0,0,1-.91,7.56,32.6,32.6,0,0,0-5.54-.5V41.94Z"/><path class="cls-2" d="M26.72,27c2.42,0,4.43,2.92,5.54,7.26a32.6,32.6,0,0,1-5.54.5Z"/><path class="cls-2" d="M26.72,49.1v7.76c-2.42,0-4.44-2.92-5.55-7.26A24.39,24.39,0,0,1,26.72,49.1Z"/><path class="cls-2" d="M26.72,34.78v7.16H20.27a29,29,0,0,1,.9-7.56A32.19,32.19,0,0,0,26.72,34.78Z"/><path class="cls-2" d="M26.72,27c-2.42,0-4.44,2.92-5.55,7.26a22.78,22.78,0,0,1-6-1.82A14.69,14.69,0,0,1,26.72,27Z"/><path class="cls-2" d="M15.12,32.46a22.78,22.78,0,0,0,6,1.82,29.56,29.56,0,0,0-.91,7.56H11.7a14.63,14.63,0,0,1,.9-5.14A27.05,27.05,0,0,1,15.12,32.46Z"/><path class="cls-2" d="M21.07,49.6a23.16,23.16,0,0,0-6,1.82,14.69,14.69,0,0,1-3.32-9.48h8.47A30,30,0,0,0,21.07,49.6Z"/><path class="cls-3" d="M34.78,18.25A1.14,1.14,0,0,1,34,18a1.37,1.37,0,0,1-.2-1.82,12.78,12.78,0,0,1,9.78-4.64,1.31,1.31,0,1,1,0,2.62,10,10,0,0,0-7.87,3.74A1.11,1.11,0,0,1,34.78,18.25Z"/><path class="cls-3" d="M15.63,21.78a1.16,1.16,0,0,1-.81-.3,7.92,7.92,0,0,0-6-1.82,1.27,1.27,0,0,1-.3-2.52,10.56,10.56,0,0,1,7.86,2.32,1.25,1.25,0,0,1,.1,1.81A.87.87,0,0,1,15.63,21.78Z"/><path class="cls-3" d="M41.64,38.31a1.31,1.31,0,0,1-1.21-.8,1.16,1.16,0,0,1,.71-1.62c9.27-3.83,7.46-11,7.36-11.29a1.24,1.24,0,1,1,2.41-.6,11.22,11.22,0,0,1-.1,5.44c-.7,2.72-2.82,6.45-8.77,8.77C41.94,38.21,41.74,38.31,41.64,38.31Z"/><path class="cls-3" d="M43.86,38.31H41.64a1.31,1.31,0,0,1,0-2.62h2.22c5.64,0,10.48-5,10.48-10.89A10.81,10.81,0,0,0,43.86,14a1.33,1.33,0,0,1-1.31-1.31A10.23,10.23,0,0,0,32.06,2.52,10.5,10.5,0,0,0,22,10a1.54,1.54,0,0,1-.61.81,1.18,1.18,0,0,1-1,.1A7.81,7.81,0,0,0,9.78,18.25v.2a1.19,1.19,0,0,1-1,1.21,7.86,7.86,0,0,0,1.72,15.53H11.7a1.26,1.26,0,1,1-.11,2.52H10.38A10.37,10.37,0,0,1,0,27.32a10.2,10.2,0,0,1,2.32-6.55,11.36,11.36,0,0,1,4.84-3.33A10.52,10.52,0,0,1,17.54,7.76a8.76,8.76,0,0,1,2.32.31A13.12,13.12,0,0,1,24.1,2.62,13,13,0,0,1,32,0a13.14,13.14,0,0,1,9.18,3.63,11.92,11.92,0,0,1,3.73,7.86,12.36,12.36,0,0,1,8,3.94,13.46,13.46,0,0,1,3.83,9.27C56.86,32.06,50.91,38.31,43.86,38.31Z"/><path class="cls-3" d="M26.72,58.07c-2.93,0-5.45-3.12-6.76-8.26a33.54,33.54,0,0,1-.9-8,33.45,33.45,0,0,1,.9-8c1.31-5.15,3.83-8.27,6.76-8.27s5.44,3.12,6.75,8.27a32.69,32.69,0,0,1,.91,7.86,33,33,0,0,1-.91,8C32.16,55.05,29.64,58.07,26.72,58.07Zm0-29.74c-1.62,0-3.33,2.52-4.34,6.35a28.31,28.31,0,0,0-.9,7.26,27.23,27.23,0,0,0,.9,7.26c1,3.83,2.72,6.35,4.34,6.35S30,53,31.05,49.2A27.88,27.88,0,0,0,32,41.94a26.81,26.81,0,0,0-.91-7.26C30,30.85,28.33,28.33,26.72,28.33Z"/><path class="cls-3" d="M26.72,58.07a1.33,1.33,0,0,1-1.31-1.31V27A1.31,1.31,0,0,1,28,27V56.86A1.32,1.32,0,0,1,26.72,58.07Z"/><path class="cls-3" d="M41.64,43.25H11.8a1.31,1.31,0,1,1,0-2.62H41.64A1.33,1.33,0,0,1,43,41.94,1.41,1.41,0,0,1,41.64,43.25Z"/><path class="cls-3" d="M15.12,52.63a1.36,1.36,0,0,1-1-.51,16.58,16.58,0,0,1-3.63-10.28,15.08,15.08,0,0,1,1-5.54,14.91,14.91,0,0,1,2.73-4.74,1.29,1.29,0,1,1,2,1.61A12.82,12.82,0,0,0,14,37.1a14.59,14.59,0,0,0-.8,4.64,13.68,13.68,0,0,0,3.12,8.67,1.29,1.29,0,0,1-.2,1.82A1.62,1.62,0,0,1,15.12,52.63Z"/><path class="cls-3" d="M38.21,52.63a1.18,1.18,0,0,1-.81-.3,1.39,1.39,0,0,1-.2-1.82,13.63,13.63,0,0,0,3.13-8.67,13.65,13.65,0,0,0-3-8.67,1.29,1.29,0,0,1,2-1.61,16.39,16.39,0,0,1,2.82,5,15.37,15.37,0,0,1,.91,5.24,16.58,16.58,0,0,1-3.63,10.28A1.73,1.73,0,0,1,38.21,52.63Z"/><path class="cls-3" d="M26.72,36.09a35.16,35.16,0,0,1-5.75-.5,25,25,0,0,1-6.25-1.92,1.65,1.65,0,0,1-.71-.9,1.12,1.12,0,0,1,.31-1.11,16.32,16.32,0,0,1,12.5-5.95,16,16,0,0,1,12.5,5.95,2,2,0,0,1,.3,1.11,1.27,1.27,0,0,1-.7.9,22.55,22.55,0,0,1-6.25,1.92A41.06,41.06,0,0,1,26.72,36.09Zm-9.38-4a39,39,0,0,0,4,1.11,31.3,31.3,0,0,0,5.35.5,31.18,31.18,0,0,0,5.34-.5,22.82,22.82,0,0,0,4-1.11,13.65,13.65,0,0,0-18.75,0Z"/><path class="cls-3" d="M26.72,58.07a16,16,0,0,1-12.5-6,1.94,1.94,0,0,1-.31-1.1,1.28,1.28,0,0,1,.71-.91,22.78,22.78,0,0,1,6.25-1.92,36.06,36.06,0,0,1,5.75-.5,35,35,0,0,1,5.74.5,25.41,25.41,0,0,1,6.25,1.92,1.56,1.56,0,0,1,.71.91,1.13,1.13,0,0,1-.3,1.1A15.32,15.32,0,0,1,26.72,58.07Zm-9.38-6.25a13.65,13.65,0,0,0,18.75,0,41.63,41.63,0,0,0-4-1.11,32,32,0,0,0-10.69.1A22.37,22.37,0,0,0,17.34,51.82Z"/><path class="cls-3" d="M53.13,49.2H45.57a1.31,1.31,0,0,1,0-2.62h7.56a1.33,1.33,0,0,1,1.31,1.31A1.48,1.48,0,0,1,53.13,49.2Z"/><path class="cls-3" d="M53.13,53H45.57a1.31,1.31,0,1,1,0-2.62h7.56a1.33,1.33,0,0,1,1.31,1.31A1.48,1.48,0,0,1,53.13,53Z"/><path class="cls-3" d="M53.13,56.76H45.57a1.31,1.31,0,0,1,0-2.62h7.56a1.33,1.33,0,0,1,1.31,1.31A1.48,1.48,0,0,1,53.13,56.76Z"/></g></g></svg>