<svg width="244" height="37" fill="none" xmlns="http://www.w3.org/2000/svg"><path d="M237.335 9.915 244 26.305h-4.675l-1.031-2.732h-6.233l-1.031 2.732h-4.675l6.665-16.39h4.315zm-3.932 10.146h3.548l-1.774-4.683-1.774 4.683zM221.935 23.647l2.47 2.658h-4.603l-.456-.61c-1.31.667-2.693 1-4.148 1-2.429 0-4.507-.837-6.233-2.512-1.726-1.674-2.589-3.699-2.589-6.073 0-2.373.863-4.398 2.589-6.072 1.726-1.675 3.804-2.512 6.233-2.512 2.43 0 4.508.837 6.234 2.512 1.726 1.674 2.589 3.699 2.589 6.072 0 2.098-.695 3.943-2.086 5.537zm-3.092-3.366a4.371 4.371 0 0 0 .575-2.17c0-1.188-.416-2.196-1.247-3.025-.815-.845-1.806-1.268-2.973-1.268-1.166 0-2.165.423-2.996 1.268-.815.83-1.223 1.838-1.223 3.024 0 1.187.408 2.204 1.223 3.05.831.828 1.83 1.243 2.996 1.243.496 0 .983-.09 1.463-.268l-1.846-2.464h3.452l.576.61zM198.47 14.208h-6.138v1.95h4.987v3.903h-4.987v1.951h6.138v4.293h-10.741V9.915h10.741v4.293zM170.414 9.915h13.042v4.293h-4.219v12.097h-4.604V14.208h-4.219V9.915zM164.079 9.915l6.665 16.39h-4.675l-1.031-2.732h-6.233l-1.031 2.732h-4.675l6.665-16.39h4.315zm-3.932 10.146h3.549l-1.774-4.683-1.775 4.683zM148.869 9.915l1.534 16.39H145.8l-.767-8.585-2.685 8.585h-3.836l-2.685-8.585-.768 8.585h-4.603l1.535-16.39h4.603l3.836 9.756 3.836-9.756h4.603zM127.068 26.305h-4.603V9.915h4.603v16.39zM105.15 9.915h13.042v4.293h-4.22v12.097h-4.603V14.208h-4.219V9.915zM97.583 22.012h6.138v4.293h-10.74V9.915h4.602v12.097zM84.5 9.915h4.987v9.366c0 2.195-.688 3.983-2.062 5.365-1.375 1.366-3.245 2.049-5.61 2.049-2.366 0-4.236-.683-5.61-2.049-1.375-1.382-2.062-3.17-2.062-5.365V9.915h4.987v9.414c0 .976.263 1.732.79 2.268.528.537 1.16.805 1.895.805.735 0 1.366-.268 1.894-.805.527-.536.79-1.292.79-2.268V9.915z" fill="#fff"/><path fill-rule="evenodd" clip-rule="evenodd" d="m32.56 0 10.528 10.71L17.962 37 0 20.25l5.645-5.742 1.884 1.916-3.678 3.741 14.004 13.06 21.492-22.488-6.787-6.905-14.603 14.856-7.6-6.958 1.783-2.014 5.72 5.237L32.56 0zm23.308 35.112V1.916h2.664v33.196h-2.664z" fill="#fff"/></svg>