<svg xmlns="http://www.w3.org/2000/svg" viewBox="0 0 57.97 57.27"><defs><style>.cls-1{fill:#fff;}.cls-2{fill:#d9bcf7;}.cls-3{fill:#003c96;}</style></defs><title>Asset 1</title><g id="Layer_2" data-name="Layer 2"><g id="_1" data-name="1"><path class="cls-1" d="M34.08,28.63H44.16A21.33,21.33,0,0,1,36.6,45l-7.16-7.16A11.77,11.77,0,0,0,34.08,28.63Z"/><path class="cls-1" d="M44.16,28.63H34.08a11.46,11.46,0,0,0-4.64-9.17L36.6,12.3A21.31,21.31,0,0,1,44.16,28.63Z"/><path class="cls-2" d="M36.6,12.3l-7.16,7.16a11.4,11.4,0,1,0,0,18.35L36.6,45a21.15,21.15,0,0,1-13.92,5.14,21.48,21.48,0,0,1,0-42.95A22.19,22.19,0,0,1,36.6,12.3Z"/><path class="cls-1" d="M26.52,28.63h7.56a11.48,11.48,0,0,1-4.64,9.18L24.1,32.46l.6-.6A4,4,0,0,0,26.52,28.63Z"/><path class="cls-1" d="M34.08,28.63H26.52a3.71,3.71,0,0,0-1.82-3.22l-.6-.61,5.34-5.34A11.75,11.75,0,0,1,34.08,28.63Z"/><path class="cls-2" d="M24.1,24.8l.6.61a4.07,4.07,0,0,0-1.91-.51,3.84,3.84,0,1,0,1.91,7.16l-.6.61L29.44,38a11.4,11.4,0,1,1,0-18.35Z"/><path class="cls-1" d="M24.6,25.41a3.78,3.78,0,0,1,0,6.45,4.18,4.18,0,0,1-1.92.5,3.83,3.83,0,0,1,0-7.66A5.22,5.22,0,0,1,24.6,25.41Z"/><path class="cls-3" d="M57.57,27.73a1.27,1.27,0,0,1,.4.9,1,1,0,0,1-.4.91,1.52,1.52,0,0,1-.91.4,1.33,1.33,0,0,1-1.31-1.31,1.09,1.09,0,0,1,.4-.9,1.28,1.28,0,0,1,.91-.41A1.26,1.26,0,0,1,57.57,27.73Z"/><path class="cls-3" d="M53.84,27.73a1.27,1.27,0,0,1,.4.9,1,1,0,0,1-.4.91,1.52,1.52,0,0,1-.91.4,1.33,1.33,0,0,1-1.31-1.31,1.09,1.09,0,0,1,.4-.9,1.28,1.28,0,0,1,.91-.41A1.26,1.26,0,0,1,53.84,27.73Z"/><path class="cls-3" d="M22.68,51.32A22.74,22.74,0,1,1,37.4,45.87,22.72,22.72,0,0,1,22.68,51.32Zm0-42.85a20.17,20.17,0,1,0,13.11,4.84A20.22,20.22,0,0,0,22.68,8.47Z"/><path class="cls-3" d="M6.35,29.94A1.33,1.33,0,0,1,5,28.63,17.73,17.73,0,0,1,22.68,11,1.34,1.34,0,0,1,24,12.3a1.25,1.25,0,0,1-1.32,1.21A15.11,15.11,0,0,0,7.56,28.63,1.31,1.31,0,0,1,6.35,29.94Z"/><path class="cls-3" d="M22.68,41.24a12.61,12.61,0,0,1,0-25.21,12.27,12.27,0,0,1,7.47,2.42,12.66,12.66,0,0,1,0,20.37A12.27,12.27,0,0,1,22.68,41.24Zm0-22.69a10,10,0,1,0,5.95,1.92A10.11,10.11,0,0,0,22.68,18.55Z"/><path class="cls-3" d="M22.68,33.67a5,5,0,1,1,0-10.08,5.94,5.94,0,0,1,2.63.71,5.09,5.09,0,0,1,0,8.67A6.07,6.07,0,0,1,22.68,33.67Zm0-7.56a2.52,2.52,0,0,0,0,5,2.07,2.07,0,0,0,1.32-.4,2.5,2.5,0,0,0,1.21-2.12A2.6,2.6,0,0,0,24,26.52,2,2,0,0,0,22.68,26.11Z"/><path class="cls-3" d="M24.1,26.11a1.09,1.09,0,0,1-.91-.4,1.27,1.27,0,0,1,0-1.82h0L41.74,5.34a1.29,1.29,0,1,1,1.82,1.82L25,25.71h0A1.22,1.22,0,0,1,24.1,26.11Z"/><path class="cls-3" d="M44.76,8.37a3.88,3.88,0,0,1-2.92-1.21,4.27,4.27,0,0,1,0-5.95A4,4,0,0,1,44.76,0a3.88,3.88,0,0,1,2.93,1.21,4.27,4.27,0,0,1,0,6A4,4,0,0,1,44.76,8.37Zm0-5.85a1.85,1.85,0,0,0-1.2.5,1.7,1.7,0,0,0,0,2.32,1.68,1.68,0,0,0,2.41,0A1.7,1.7,0,0,0,46,3,2.08,2.08,0,0,0,44.76,2.52Z"/><path class="cls-3" d="M42.65,52.33a1.22,1.22,0,0,1-.91-.41L23.19,33.27A1.28,1.28,0,1,1,25,31.46L43.66,50.11a1.28,1.28,0,0,1,0,1.81A2.1,2.1,0,0,1,42.65,52.33Z"/><path class="cls-3" d="M44.76,57.27a3.91,3.91,0,0,1-2.92-1.21,4.27,4.27,0,0,1,0-6,4,4,0,0,1,2.92-1.21,3.88,3.88,0,0,1,2.93,1.21,4.27,4.27,0,0,1,0,6A4.08,4.08,0,0,1,44.76,57.27Zm0-5.85a1.85,1.85,0,0,0-1.2.5,1.7,1.7,0,0,0,0,2.32,1.68,1.68,0,0,0,2.41,0,1.7,1.7,0,0,0,0-2.32A2.08,2.08,0,0,0,44.76,51.42Z"/><path class="cls-3" d="M49.2,29.94H26.52a1.31,1.31,0,1,1,0-2.62H49.2a1.33,1.33,0,0,1,1.31,1.31A1.48,1.48,0,0,1,49.2,29.94Z"/></g></g></svg>